<svg width="129" height="112" viewBox="0 0 129 112" fill="none" xmlns="http://www.w3.org/2000/svg">
<path d="M110.454 64C121.89 64 128.511 54.5979 126.705 39.7526C124.9 24.9072 111.282 16 93 16" stroke="black" stroke-width="4"/>
<path d="M18.5455 64C7.10982 64 0.489157 54.5979 2.29479 39.7526C4.10043 24.9072 17.7175 16 36 16" stroke="black" stroke-width="4"/>
<path d="M98 29C98 14.0883 83.2254 2 65 2C46.7746 2 32 14.0883 32 29" stroke="black" stroke-width="4"/>
<path d="M19 62V105C19 107.761 21.2386 110 24 110H106C108.761 110 111 107.761 111 105V62" stroke="black" stroke-width="4"/>
<line y1="-2" x2="15.2298" y2="-2" transform="matrix(0.39367 0.919252 -0.958393 0.28545 31.9775 50)" stroke="black" stroke-width="4"/>
<line x1="66" y1="45" x2="66" y2="60" stroke="black" stroke-width="4"/>
<line y1="-2" x2="15.2298" y2="-2" transform="matrix(-0.39367 0.919252 0.958393 0.28545 97.928 50)" stroke="black" stroke-width="4"/>
</svg>
