<svg width="34" height="34" viewBox="0 0 34 34" fill="none" xmlns="http://www.w3.org/2000/svg">
<path d="M28.7644 19.3704C31.6919 19.3704 33.3868 16.5846 32.9245 12.186C32.4623 7.78734 28.9763 5.14816 24.296 5.14816" stroke="black" stroke-width="2"/>
<path d="M5.23565 19.3704C2.30811 19.3704 0.613218 16.5846 1.07546 12.186C1.5377 7.78734 5.02368 5.14816 9.70399 5.14816" stroke="black" stroke-width="2"/>
<path d="M25.576 9C25.576 4.58172 21.7937 1 17.128 1C12.4623 1 8.67999 4.58172 8.67999 9" stroke="black" stroke-width="2"/>
<path d="M5.35201 18.7778V28C5.35201 30.7614 7.59058 33 10.352 33H23.904C26.6654 33 28.904 30.7614 28.904 28V18.7778" stroke="black" stroke-width="2"/>
<line y1="-1" x2="4.423" y2="-1" transform="matrix(0.347015 0.937859 -0.945403 0.325904 8.67424 15.2222)" stroke="black" stroke-width="2"/>
<line x1="17.872" y1="13.7407" x2="17.872" y2="18.1852" stroke="black" stroke-width="2"/>
<line y1="-1" x2="4.423" y2="-1" transform="matrix(-0.347015 0.937859 0.945403 0.325904 25.5576 15.2222)" stroke="black" stroke-width="2"/>
</svg>
